<svg width="22" height="22" viewBox="0 0 22 22" fill="none" xmlns="http://www.w3.org/2000/svg">
<path d="M14.24 21.2705H14.11C9.67001 21.2705 7.53002 19.5205 7.16002 15.6005C7.12002 15.1905 7.42002 14.8205 7.84002 14.7805C8.24002 14.7405 8.62002 15.0505 8.66002 15.4605C8.95002 18.6005 10.43 19.7705 14.12 19.7705H14.25C18.32 19.7705 19.76 18.3305 19.76 14.2605V7.74047C19.76 3.67047 18.32 2.23047 14.25 2.23047H14.12C10.41 2.23047 8.93002 3.42047 8.66002 6.62047C8.61002 7.03047 8.26002 7.34047 7.84002 7.30047C7.42002 7.27047 7.12001 6.90047 7.15001 6.49047C7.49001 2.51047 9.64002 0.730469 14.11 0.730469H14.24C19.15 0.730469 21.25 2.83047 21.25 7.74047V14.2605C21.25 19.1705 19.15 21.2705 14.24 21.2705Z" fill="#E25C5C"/>
<path d="M14 11.75H2.62C2.21 11.75 1.87 11.41 1.87 11C1.87 10.59 2.21 10.25 2.62 10.25H14C14.41 10.25 14.75 10.59 14.75 11C14.75 11.41 14.41 11.75 14 11.75Z" fill="#E25C5C"/>
<path d="M4.85 15.0998C4.66 15.0998 4.47 15.0298 4.32 14.8798L0.970002 11.5298C0.680002 11.2398 0.680002 10.7598 0.970002 10.4698L4.32 7.11984C4.61 6.82984 5.09 6.82984 5.38 7.11984C5.67 7.40984 5.67 7.88984 5.38 8.17984L2.56 10.9998L5.38 13.8198C5.67 14.1098 5.67 14.5898 5.38 14.8798C5.24 15.0298 5.04 15.0998 4.85 15.0998Z" fill="#E25C5C"/>
</svg>
