<svg width="14" height="14" viewBox="0 0 14 14" fill="none" xmlns="http://www.w3.org/2000/svg">
<path d="M13.3534 9.62024C13.2467 9.44024 12.9467 9.16024 12.2 9.29357C11.7867 9.36691 11.3667 9.40024 10.9467 9.38024C9.39338 9.31357 7.98672 8.60024 7.00672 7.50024C6.14005 6.53357 5.60672 5.27357 5.60005 3.91357C5.60005 3.15357 5.74672 2.42024 6.04672 1.72691C6.34005 1.05357 6.13338 0.70024 5.98672 0.553574C5.83338 0.40024 5.47338 0.186907 4.76672 0.48024C2.04005 1.62691 0.353383 4.36024 0.553383 7.28691C0.753383 10.0402 2.68672 12.3936 5.24672 13.2802C5.86005 13.4936 6.50672 13.6202 7.17338 13.6469C7.28005 13.6536 7.38672 13.6602 7.49338 13.6602C9.72672 13.6602 11.82 12.6069 13.14 10.8136C13.5867 10.1936 13.4667 9.80024 13.3534 9.62024Z" fill="white"/>
</svg>
